<svg preserveAspectRatio="none" overflow="visible" style="display: block;" width="2299.07" height="472.003" viewBox="0 0 2299.07 472.003" fill="none" xmlns="http://www.w3.org/2000/svg">
<g id="Union">
<path d="M1377.4 232.544C1499.88 53.3616 1700.35 -42.5612 1825.14 18.2944C1889.85 49.8484 1921.51 117.356 1919.93 200.028C1919.86 203.639 1924.24 205.65 1926.92 203.221C2017.9 120.575 2127.01 90.6701 2206.83 137.163C2298.54 190.582 2323.01 328.223 2275.08 469.293C2274.53 470.907 2273.01 471.999 2271.3 471.999H1815.77C1815.77 471.999 1815.77 472 1815.77 472.001C1815.77 472.002 1815.77 472.002 1815.77 472.002H1353.81C1353.81 472.002 1353.81 472.003 1353.81 472.003C1353.81 472.003 1353.81 472.003 1353.81 472.003H999.268C999.267 472.003 999.265 472.002 999.266 472C999.266 471.998 999.264 471.997 999.263 471.997H845.878C845.876 471.997 845.874 471.998 845.872 471.999C845.871 472.001 845.869 472.002 845.867 472.002H403.502C403.502 472.002 403.501 472.002 403.501 472.002C403.501 472.002 403.501 472.001 403.501 472.001H3.98246C1.44668 472.001 -0.4502 469.673 0.0934997 467.196C9.77652 423.085 27.1206 377.567 52.3129 333.544C143.33 174.494 302.313 95.1857 407.411 156.404C436.784 173.514 458.838 199.791 473.384 232.245C474.41 234.534 477.639 234.722 478.885 232.544C581.423 53.3614 749.242 -42.5614 853.718 18.2944C928.424 61.81 950.513 173.704 919.547 299.45C918.713 302.837 922.309 305.725 925.479 304.269C958.356 289.163 991.759 287.654 1018.59 303.284C1032.41 311.332 1043.2 323.175 1050.88 337.725C1052.35 340.504 1056.34 340.834 1058.15 338.263C1128.07 238.895 1233.99 192.817 1306.12 234.835C1322.02 244.093 1335.06 256.921 1345.2 272.482C1346.89 275.078 1350.79 275.045 1352.34 272.361C1360.02 259.045 1368.37 245.753 1377.4 232.544Z" fill="#8F83FF"/>
<path d="M1377.4 232.544C1499.88 53.3616 1700.35 -42.5612 1825.14 18.2944C1889.85 49.8484 1921.51 117.356 1919.93 200.028C1919.86 203.639 1924.24 205.65 1926.92 203.221C2017.9 120.575 2127.01 90.6701 2206.83 137.163C2298.54 190.582 2323.01 328.223 2275.08 469.293C2274.53 470.907 2273.01 471.999 2271.3 471.999H1815.77C1815.77 471.999 1815.77 472 1815.77 472.001C1815.77 472.002 1815.77 472.002 1815.77 472.002H1353.81C1353.81 472.002 1353.81 472.003 1353.81 472.003C1353.81 472.003 1353.81 472.003 1353.81 472.003H999.268C999.267 472.003 999.265 472.002 999.266 472C999.266 471.998 999.264 471.997 999.263 471.997H845.878C845.876 471.997 845.874 471.998 845.872 471.999C845.871 472.001 845.869 472.002 845.867 472.002H403.502C403.502 472.002 403.501 472.002 403.501 472.002C403.501 472.002 403.501 472.001 403.501 472.001H3.98246C1.44668 472.001 -0.4502 469.673 0.0934997 467.196C9.77652 423.085 27.1206 377.567 52.3129 333.544C143.33 174.494 302.313 95.1857 407.411 156.404C436.784 173.514 458.838 199.791 473.384 232.245C474.41 234.534 477.639 234.722 478.885 232.544C581.423 53.3614 749.242 -42.5614 853.718 18.2944C928.424 61.81 950.513 173.704 919.547 299.45C918.713 302.837 922.309 305.725 925.479 304.269C958.356 289.163 991.759 287.654 1018.59 303.284C1032.41 311.332 1043.2 323.175 1050.88 337.725C1052.35 340.504 1056.34 340.834 1058.15 338.263C1128.07 238.895 1233.99 192.817 1306.12 234.835C1322.02 244.093 1335.06 256.921 1345.2 272.482C1346.89 275.078 1350.79 275.045 1352.34 272.361C1360.02 259.045 1368.37 245.753 1377.4 232.544Z" fill="url(#paint0_linear_0_71)"/>
</g>
<defs>
<linearGradient id="paint0_linear_0_71" x1="1149.53" y1="-6.35802e-07" x2="1149.53" y2="472.003" gradientUnits="userSpaceOnUse">
<stop stop-color="#8F83FF"/>
<stop offset="1" stop-color="#6656F7"/>
</linearGradient>
</defs>
</svg>
